<?xml version="1.0" encoding="utf-8"?>
<!-- Generator: Adobe Illustrator 24.0.3, SVG Export Plug-In . SVG Version: 6.00 Build 0)  -->
<!DOCTYPE svg PUBLIC "-//W3C//DTD SVG 1.1//EN" "http://www.w3.org/Graphics/SVG/1.1/DTD/svg11.dtd" [
	<!ENTITY ns_extend "http://ns.adobe.com/Extensibility/1.0/">
	<!ENTITY ns_ai "http://ns.adobe.com/AdobeIllustrator/10.0/">
	<!ENTITY ns_graphs "http://ns.adobe.com/Graphs/1.0/">
	<!ENTITY ns_vars "http://ns.adobe.com/Variables/1.0/">
	<!ENTITY ns_imrep "http://ns.adobe.com/ImageReplacement/1.0/">
	<!ENTITY ns_sfw "http://ns.adobe.com/SaveForWeb/1.0/">
	<!ENTITY ns_custom "http://ns.adobe.com/GenericCustomNamespace/1.0/">
	<!ENTITY ns_adobe_xpath "http://ns.adobe.com/XPath/1.0/">
]>
<svg version="1.1" id="Layer_1" xmlns:x="&ns_extend;" xmlns:i="&ns_ai;" xmlns:graph="&ns_graphs;"
	 xmlns="http://www.w3.org/2000/svg" xmlns:xlink="http://www.w3.org/1999/xlink" x="0px" y="0px" viewBox="0 0 682 682"
	 style="enable-background:new 0 0 682 682;" xml:space="preserve">
<style type="text/css">
	.st0{fill:#5C646D;}
</style>
<metadata>
	<sfw  xmlns="&ns_sfw;">
		<slices></slices>
		<sliceSourceBounds  bottomLeftOrigin="true" height="643.3" width="672.7" x="4.3" y="20.1"></sliceSourceBounds>
	</sfw>
</metadata>
<path class="st0" d="M85.8,18.6c-49.4,0-81.6,32.4-81.6,75c0,41.7,31.3,74.9,79.7,74.9h0.9c50.3,0,81.6-33.4,81.6-74.9
	C165.6,51,135.2,18.6,85.8,18.6z"/>
<path class="st0" d="M12.8,227.8h144.3v434H12.8V227.8z"/>
<path class="st0" d="M511.1,217.6c-77.8,0-130,73.1-130,73.1v-62.9H236.9v434H381V419.5c0-12.9,0.9-25.9,4.7-35.3
	c10.4-25.9,34.2-52.7,74-52.7c52.2,0,73,39.8,73,98.1v232.2H677V413C677.2,279.7,606,217.6,511.1,217.6z"/>
</svg>
